<svg width="24" height="24" viewBox="0 0 24 24" fill="none" xmlns="http://www.w3.org/2000/svg">
<path d="M3.94799 13.318C3.85847 13.5624 3.67717 13.7623 3.44261 13.8752C3.20806 13.988 2.93874 14.005 2.69188 13.9224C2.44501 13.8399 2.24007 13.6643 2.12058 13.4331C2.0011 13.2018 1.97649 12.9331 2.052 12.684C2.08862 12.5743 2.13 12.4642 2.176 12.358C2.256 12.168 2.374 11.906 2.536 11.596C2.866 10.976 3.37999 10.15 4.138 9.324C5.66799 7.654 8.174 6 12 6C15.826 6 18.332 7.654 19.862 9.324C20.678 10.2204 21.3403 11.2456 21.822 12.358L21.914 12.584C21.92 12.6 21.94 12.704 21.96 12.804L22 13C22 13 22.168 13.666 21.316 13.948C21.0651 14.0318 20.7912 14.0128 20.5543 13.8951C20.3174 13.7773 20.1368 13.5706 20.052 13.32V13.314L20.04 13.282L19.978 13.126C19.5851 12.2275 19.048 11.3993 18.388 10.674C17.168 9.348 15.174 8 12 8C8.826 8 6.832 9.346 5.61199 10.676C4.95213 11.4006 4.41506 12.2282 4.02199 13.126L3.96199 13.282L3.94799 13.318ZM8 14C8 12.9391 8.42142 11.9217 9.17157 11.1716C9.92171 10.4214 10.9391 10 12 10C13.0609 10 14.0783 10.4214 14.8284 11.1716C15.5786 11.9217 16 12.9391 16 14C16 15.0609 15.5786 16.0783 14.8284 16.8284C14.0783 17.5786 13.0609 18 12 18C10.9391 18 9.92171 17.5786 9.17157 16.8284C8.42142 16.0783 8 15.0609 8 14Z" fill="#1769FF"/>
</svg>
